<svg xmlns="http://www.w3.org/2000/svg" width="75.14" height="103.4" viewBox="0 0 75.14 103.4"><defs><style>.cls-1{fill:#edcb9a;}.cls-2{isolation:isolate;}</style></defs><title>Asset 2</title><g id="Layer_2" data-name="Layer 2"><g id="Layer_1-2" data-name="Layer 1"><g id="Layer_2-2" data-name="Layer 2"><g id="Layer_1-2-2" data-name="Layer 1-2"><path class="cls-1" d="M14.68,103.27V99H10.11v4.28H7.31v-11h2.8v4.54h4.57V92.25h2.8v11Z"/><path class="cls-1" d="M22.48,92.34A1.43,1.43,0,1,1,21,90.91,1.39,1.39,0,0,1,22.48,92.34Zm-2.8,10.93V94.78h2.71v8.49Z"/><path class="cls-1" d="M39,97.92v5.35H36.26v-4.6a1.44,1.44,0,0,0-1.46-1.62,1.79,1.79,0,0,0-1.65,2v4.2H30.42v-4.6A1.42,1.42,0,0,0,29,97.05a1.8,1.8,0,0,0-1.69,2v4.2H24.57V94.78h2.71v1.4a3.08,3.08,0,0,1,2.8-1.53,2.84,2.84,0,0,1,2.83,1.92,3.08,3.08,0,0,1,3-1.92A3,3,0,0,1,39,97.92Z"/><path class="cls-1" d="M48.42,97.73v5.54H45.76v-1a3.1,3.1,0,0,1-2.6,1.1,2.63,2.63,0,0,1-2.91-2.66c0-1.61,1.15-2.55,3.26-2.57h2.24V98c0-.83-.55-1.34-1.65-1.34a6,6,0,0,0-2.54.71l-.77-1.79a8.94,8.94,0,0,1,3.94-1C47,94.66,48.4,95.81,48.42,97.73Zm-2.68,2.66v-.76H44c-.82,0-1.23.28-1.23.91s.44,1,1.2,1A1.72,1.72,0,0,0,45.74,100.39Z"/><g class="cls-2"><path class="cls-1" d="M53.07,96.21a3.1,3.1,0,0,1,2.76-1.56v2.46c-1.57-.14-2.61.6-2.76,1.79v4.36H50.34V94.78h2.72Z"/></g><g class="cls-2"><path class="cls-1" d="M64.35,97.73v5.54H61.69v-1a3.1,3.1,0,0,1-2.6,1.1,2.63,2.63,0,0,1-2.91-2.66c0-1.61,1.15-2.55,3.26-2.57h2.24V98c0-.83-.55-1.34-1.65-1.34a6,6,0,0,0-2.54.71l-.77-1.79a9,9,0,0,1,3.94-1C63,94.66,64.33,95.81,64.35,97.73Zm-2.68,2.66v-.76H60c-.82,0-1.23.28-1.23.91s.44,1,1.2,1A1.72,1.72,0,0,0,61.67,100.39Z"/><path class="cls-1" d="M68.43,102.07a1.26,1.26,0,0,1-1.32,1.32,1.32,1.32,0,1,1,1.32-1.32Z"/></g><path class="cls-1" d="M45,54.72V40.87H30.21V54.72H21.15V19.07h9.06V33.74H45V19.07h9V54.72Z"/><path class="cls-1" d="M27.12,68.15h0a5.48,5.48,0,0,0-1.84-3,19.28,19.28,0,0,0-4-2.48A3.77,3.77,0,0,0,22.4,66a8.07,8.07,0,0,0,3,1.8,18.76,18.76,0,0,0-3.59-.49,5.71,5.71,0,0,0-3.68,1.07,11.37,11.37,0,0,0,5.42,1.44A4.72,4.72,0,0,0,27.12,68.15Z"/><path class="cls-1" d="M19.84,65.5h0A5.35,5.35,0,0,0,19,62.1a16.06,16.06,0,0,0-3-3.22,3.92,3.92,0,0,0,.21,3.44,7.3,7.3,0,0,0,2.26,2.36,15.67,15.67,0,0,0-3.14-1.21,5.39,5.39,0,0,0-3.66.28,10,10,0,0,0,4.61,2.51,4.42,4.42,0,0,0,3.57-.78Z"/><path class="cls-1" d="M13.83,61.4h0a5.44,5.44,0,0,0,0-3.41,14.75,14.75,0,0,0-2.1-3.77,4,4,0,0,0-.6,3.4,7.11,7.11,0,0,0,1.56,2.77A14,14,0,0,0,10,58.56,5.14,5.14,0,0,0,6.54,58a9.67,9.67,0,0,0,3.77,3.41A4.14,4.14,0,0,0,13.83,61.4Z"/><path class="cls-1" d="M9.18,56.18h0A5.5,5.5,0,0,0,10,52.81,14,14,0,0,0,8.8,48.68a4.1,4.1,0,0,0-1.3,3.19,7.23,7.23,0,0,0,.88,3,13.17,13.17,0,0,0-2.15-2.34,5,5,0,0,0-3.32-1.19,9.72,9.72,0,0,0,2.9,4.12A4,4,0,0,0,9.18,56.18Z"/><path class="cls-1" d="M5.85,50.1h0A5.49,5.49,0,0,0,7.36,47,13.75,13.75,0,0,0,7,42.69a4,4,0,0,0-1.9,2.85,7.41,7.41,0,0,0,.24,3.15,13.08,13.08,0,0,0-1.61-2.75,5,5,0,0,0-3-1.9,10,10,0,0,0,2,4.65A3.94,3.94,0,0,0,5.85,50.1Z"/><path class="cls-1" d="M3.86,43.46h0a5.37,5.37,0,0,0,2-2.72,13.62,13.62,0,0,0,.49-4.28A3.92,3.92,0,0,0,4,38.83,7.48,7.48,0,0,0,3.63,42a13.19,13.19,0,0,0-1-3A5.22,5.22,0,0,0,0,36.43a10.3,10.3,0,0,0,1.06,5A4,4,0,0,0,3.86,43.46Z"/><path class="cls-1" d="M3.19,36.53h.07A5.18,5.18,0,0,0,5.75,34.3,13.45,13.45,0,0,0,7,30.21,3.81,3.81,0,0,0,4.22,32a7.38,7.38,0,0,0-1,3,13.25,13.25,0,0,0-.45-3.19,5.38,5.38,0,0,0-2-3,10.34,10.34,0,0,0,.1,5.1A4.14,4.14,0,0,0,3.19,36.53Z"/><path class="cls-1" d="M3.84,29.6h0A5,5,0,0,0,6.78,28a13.37,13.37,0,0,0,2.06-3.73,3.74,3.74,0,0,0-3.11,1.18,7.19,7.19,0,0,0-1.52,2.73A13.46,13.46,0,0,0,4.38,25,5.52,5.52,0,0,0,3,21.6a10.14,10.14,0,0,0-.9,5A4.26,4.26,0,0,0,3.84,29.6Z"/><path class="cls-1" d="M5.82,23h0A5,5,0,0,0,9,22a13.71,13.71,0,0,0,2.8-3.21,3.77,3.77,0,0,0-3.32.49,7,7,0,0,0-2.05,2.34,13.79,13.79,0,0,0,.83-3.12,5.55,5.55,0,0,0-.68-3.59,9.85,9.85,0,0,0-1.93,4.71A4.31,4.31,0,0,0,5.81,23Z"/><path class="cls-1" d="M9.13,16.89h0a5.11,5.11,0,0,0,3.32-.32A14.68,14.68,0,0,0,16,14.05a3.92,3.92,0,0,0-3.41-.23A7.06,7.06,0,0,0,10,15.67a14.43,14.43,0,0,0,1.51-2.87,5.45,5.45,0,0,0,.15-3.65,9.76,9.76,0,0,0-3,4.19,4.25,4.25,0,0,0,.41,3.52Z"/><path class="cls-1" d="M13.77,11.65h0a5.34,5.34,0,0,0,3.4.4,16.76,16.76,0,0,0,4.18-1.71,4.14,4.14,0,0,0-3.41-1,7.53,7.53,0,0,0-3,1.25A15.8,15.8,0,0,0,17.21,8.2a5.39,5.39,0,0,0,1.08-3.52,10.18,10.18,0,0,0-4.07,3.43,4.12,4.12,0,0,0-.43,3.52Z"/><path class="cls-1" d="M48.08,68.15h0a5.49,5.49,0,0,1,1.84-3,19.22,19.22,0,0,1,4-2.48A3.79,3.79,0,0,1,52.8,66a8.05,8.05,0,0,1-3,1.8,18.71,18.71,0,0,1,3.59-.49,5.73,5.73,0,0,1,3.62,1,11.38,11.38,0,0,1-5.42,1.44A4.71,4.71,0,0,1,48.08,68.15Z"/><path class="cls-1" d="M55.36,65.5h0a5.32,5.32,0,0,1,.87-3.32,16,16,0,0,1,3-3.22A3.9,3.9,0,0,1,59,62.32a7.31,7.31,0,0,1-2.26,2.36,15.68,15.68,0,0,1,3.14-1.21,5.4,5.4,0,0,1,3.66.28,10.07,10.07,0,0,1-4.61,2.51,4.41,4.41,0,0,1-3.57-.78Z"/><path class="cls-1" d="M61.37,61.4h0a5.44,5.44,0,0,1,0-3.41,14.73,14.73,0,0,1,2.1-3.77,4,4,0,0,1,.59,3.4,7.15,7.15,0,0,1-1.56,2.77,13.92,13.92,0,0,1,2.66-1.83A5.14,5.14,0,0,1,68.65,58a9.68,9.68,0,0,1-3.77,3.41A4.14,4.14,0,0,1,61.37,61.4Z"/><path class="cls-1" d="M66,56.18h0a5.54,5.54,0,0,1-.76-3.33,14,14,0,0,1,1.21-4.13,4.08,4.08,0,0,1,1.3,3.19,7.21,7.21,0,0,1-.88,3A13.33,13.33,0,0,1,69,52.56a5,5,0,0,1,3.32-1.22,9.73,9.73,0,0,1-2.89,4.12A4,4,0,0,1,66,56.18Z"/><path class="cls-1" d="M69.34,50.1h0a5.49,5.49,0,0,1-1.5-3.1,13.68,13.68,0,0,1,.35-4.29,4,4,0,0,1,1.91,2.85,7.43,7.43,0,0,1-.24,3.15A13.3,13.3,0,0,1,71.47,46a5.07,5.07,0,0,1,3-1.9,10.05,10.05,0,0,1-2,4.65A4,4,0,0,1,69.34,50.1Z"/><path class="cls-1" d="M71.34,43.46h0a5.35,5.35,0,0,1-2-2.72,13.59,13.59,0,0,1-.48-4.28,3.94,3.94,0,0,1,2.41,2.38A7.5,7.5,0,0,1,71.56,42a13.19,13.19,0,0,1,1-3,5.25,5.25,0,0,1,2.57-2.5,10.27,10.27,0,0,1-1.06,5A4,4,0,0,1,71.34,43.46Z"/><path class="cls-1" d="M72,36.53h-.07a5.18,5.18,0,0,1-2.49-2.23,13.5,13.5,0,0,1-1.29-4.09A3.81,3.81,0,0,1,71,32a7.45,7.45,0,0,1,1,3,13.34,13.34,0,0,1,.45-3.19,5.4,5.4,0,0,1,2-3,10.36,10.36,0,0,1-.09,5.1A4.14,4.14,0,0,1,72,36.53Z"/><path class="cls-1" d="M71.35,29.6h0A5,5,0,0,1,68.42,28a13.43,13.43,0,0,1-2.06-3.73,3.74,3.74,0,0,1,3.11,1.18A7.19,7.19,0,0,1,71,28.13a13.45,13.45,0,0,1-.17-3.22,5.51,5.51,0,0,1,1.41-3.36,10.15,10.15,0,0,1,.9,5A4.25,4.25,0,0,1,71.35,29.6Z"/><path class="cls-1" d="M69.37,23h0a5,5,0,0,1-3.14-1,13.76,13.76,0,0,1-2.8-3.21,3.77,3.77,0,0,1,3.32.49,7,7,0,0,1,2.05,2.34A13.84,13.84,0,0,1,68,18.5a5.53,5.53,0,0,1,.68-3.59,9.84,9.84,0,0,1,1.93,4.71A4.31,4.31,0,0,1,69.44,23Z"/><path class="cls-1" d="M66.07,16.89h0a5.11,5.11,0,0,1-3.32-.32A14.65,14.65,0,0,1,59.25,14a3.92,3.92,0,0,1,3.41-.23,7.05,7.05,0,0,1,2.55,1.85,14.55,14.55,0,0,1-1.51-2.87,5.49,5.49,0,0,1-.15-3.65,9.71,9.71,0,0,1,3,4.19,4.26,4.26,0,0,1-.4,3.52Z"/><path class="cls-1" d="M61.43,11.65h0A5.35,5.35,0,0,1,58,12a16.88,16.88,0,0,1-4.18-1.71,4.15,4.15,0,0,1,3.41-1,7.53,7.53,0,0,1,3,1.25A15.79,15.79,0,0,1,58,8.2a5.37,5.37,0,0,1-1.1-3.52A10.17,10.17,0,0,1,61,8.11a4.12,4.12,0,0,1,.43,3.52Z"/><polygon class="cls-1" points="37.53 0 38.27 2.31 40.7 2.3 38.73 3.73 39.49 6.03 37.53 4.6 35.56 6.03 36.32 3.73 34.35 2.3 36.78 2.31 37.53 0 37.53 0"/><polygon class="cls-1" points="31.08 2.26 31.73 4.28 33.85 4.27 32.13 5.52 32.79 7.53 31.08 6.28 29.37 7.53 30.03 5.52 28.31 4.27 30.43 4.28 31.08 2.26 31.08 2.26"/><polygon class="cls-1" points="44.03 2.26 44.68 4.28 46.8 4.27 45.09 5.52 45.74 7.53 44.03 6.28 42.32 7.53 42.98 5.52 41.26 4.27 43.38 4.28 44.03 2.26 44.03 2.26"/><polygon class="cls-1" points="25.09 4.97 25.61 6.58 27.3 6.58 25.93 7.57 26.46 9.19 25.09 8.19 23.72 9.19 24.24 7.57 22.87 6.58 24.57 6.58 25.09 4.97 25.09 4.97"/><polygon class="cls-1" points="50.11 4.97 50.63 6.58 52.33 6.58 50.95 7.57 51.48 9.19 50.11 8.19 48.74 9.19 49.27 7.57 47.89 6.58 49.59 6.58 50.11 4.97 50.11 4.97"/><polygon class="cls-1" points="37.6 67.45 38.16 69.17 39.97 69.17 38.5 70.23 39.06 71.96 37.6 70.89 36.13 71.96 36.7 70.23 35.23 69.17 37.04 69.17 37.6 67.45 37.6 67.45"/></g></g></g></g></svg>